<?xml version="1.0" encoding="utf-8"?>
<!-- Generator: Adobe Illustrator 19.0.0, SVG Export Plug-In . SVG Version: 6.00 Build 0)  -->
<svg version="1.1" id="Layer_2" xmlns="http://www.w3.org/2000/svg" xmlns:xlink="http://www.w3.org/1999/xlink" x="0px" y="0px"
	 viewBox="0 0 425.2 425.2" style="enable-background:new 0 0 425.2 425.2;" xml:space="preserve">
<style type="text/css">
	.st0{fill:#B5F1FF;}
	.st1{fill:url(#XMLID_46_);stroke:#000000;stroke-width:5;stroke-miterlimit:10;}
	.st2{clip-path:url(#XMLID_50_);fill:#FFFFFF;}
	.st3{fill:none;stroke:#000000;stroke-width:5;stroke-miterlimit:10;}
	.st4{fill:#999999;stroke:#000000;stroke-miterlimit:10;}
	.st5{fill:#F0D2A2;stroke:#000000;stroke-width:1.6889;stroke-linecap:round;stroke-linejoin:round;stroke-miterlimit:10;}
	.st6{fill:#68C5D8;stroke:#000000;stroke-width:1.6889;stroke-linecap:round;stroke-linejoin:round;stroke-miterlimit:10;}
	.st7{fill:#FFFFFF;stroke:#000000;stroke-width:1.6889;stroke-linecap:round;stroke-linejoin:round;stroke-miterlimit:10;}
	.st8{stroke:#000000;stroke-width:1.4605;stroke-linecap:round;stroke-linejoin:round;stroke-miterlimit:10;}
	.st9{fill:#FFFFFF;stroke:#000000;stroke-width:1.5698;stroke-linecap:round;stroke-linejoin:round;stroke-miterlimit:10;}
	.st10{stroke:#000000;stroke-width:1.5698;stroke-linecap:round;stroke-linejoin:round;stroke-miterlimit:10;}
	.st11{stroke:#000000;stroke-width:1.6889;stroke-linecap:round;stroke-linejoin:round;stroke-miterlimit:10;}
	.st12{fill:#E15343;stroke:#000000;stroke-width:1.836;stroke-miterlimit:10;}
	.st13{fill:#873228;stroke:#000000;stroke-width:1.836;stroke-miterlimit:10;}
	.st14{fill:none;stroke:#000000;stroke-width:1.836;stroke-linecap:round;stroke-linejoin:round;stroke-miterlimit:10;}
	.st15{fill:#E5E5E5;stroke:#000000;stroke-miterlimit:10;}
	.st16{opacity:0.63;fill:#E5E5E5;}
	.st17{fill:none;stroke:#000000;stroke-linecap:round;stroke-linejoin:round;stroke-miterlimit:10;}
	.st18{fill:#4D4D4D;stroke:#000000;stroke-width:1.6889;stroke-linecap:round;stroke-linejoin:round;stroke-miterlimit:10;}
	.st19{fill:#999999;stroke:#000000;stroke-width:1.6889;stroke-linecap:round;stroke-linejoin:round;stroke-miterlimit:10;}
	.st20{fill:#F0D2A2;stroke:#000000;stroke-width:1.836;stroke-linecap:round;stroke-linejoin:round;stroke-miterlimit:10;}
	.st21{fill:#F2F2F2;stroke:#000000;stroke-width:1.6889;stroke-linecap:round;stroke-linejoin:round;stroke-miterlimit:10;}
	.st22{fill:#B3B3B3;}
	.st23{fill:#333333;}
	.st24{opacity:0.2;fill:none;stroke:#000000;stroke-miterlimit:10;}
	.st25{opacity:0.22;fill:none;stroke:#000000;stroke-miterlimit:10;}
	.st26{fill:#FFFFFF;}
</style>
<circle id="XMLID_64_" class="st0" cx="212.6" cy="212.6" r="187"/>
<circle id="XMLID_220_" class="st0" cx="212.6" cy="212.6" r="187"/>
<linearGradient id="XMLID_46_" gradientUnits="userSpaceOnUse" x1="212.5984" y1="389.9584" x2="212.5984" y2="30.6195">
	<stop  offset="0" style="stop-color:#B8F1FF"/>
	<stop  offset="1" style="stop-color:#1FD2FF"/>
</linearGradient>
<circle id="XMLID_66_" class="st1" cx="212.6" cy="212.6" r="187"/>
<g id="XMLID_48_">
	<defs>
		<circle id="XMLID_47_" cx="212.6" cy="212.6" r="187"/>
	</defs>
	<clipPath id="XMLID_50_">
		<use xlink:href="#XMLID_47_"  style="overflow:visible;"/>
	</clipPath>
	<path id="XMLID_54_" class="st2" d="M482.2,191.1c0-31.3-25.5-56.7-57-56.7c-26.8,0-49.2,18.4-55.4,43.1
		c-22.5,5.8-38.6,22-38.6,41.1c0,24,25.5,43.4,57,43.4c16.9,0,32-5.6,42.4-14.4C459.6,244.8,482.2,220.6,482.2,191.1z"/>
	<path id="XMLID_52_" class="st2" d="M295.6,188c-11.9-23.1-43.8-31.2-76.7-21.9c-15.3-26.3-57.6-31.8-96-12
		c-16,8.2-28.8,19.5-37.4,32c-8.4-4.8-18.1-7.6-28.5-7.6c-31.5,0-57,25.4-57,56.7c0,31.3,25.5,56.7,57,56.7c9.7,0,18.9-2.4,26.9-6.7
		c14.2,9.2,33.1,14.8,53.8,14.8c20.3,0,38.8-5.4,52.8-14.2c18,3.1,39.5-0.3,59.9-10.8C289.7,254.8,309.9,215.8,295.6,188z"/>
</g>
<circle id="XMLID_49_" class="st3" cx="212.6" cy="212.6" r="187"/>
<path id="XMLID_31_" class="st4" d="M198.2,158.7c-3.2,2.1-16.1,7.7-22.1,12.4s-6.3,13-6.3,13s2.5,1.9,4,0.1s0.9-7.7,6.1-10.8
	c5.6-3.4,16-8.4,25.6-14.2c3.5-2.1,7.4-7.9,4.2-9.2C206.5,148.7,201.4,156.6,198.2,158.7z"/>
<path id="XMLID_33_" class="st4" d="M248.3,173c0.8,4,6.5,18.6,7.3,26.6s-6.2,13.1-6.2,13.1s-3.7-1.1-3.4-3.4
	c0.3-2.4,5.9-5.3,4.4-11.6c-1.6-6.9-5.8-18.9-8.6-30.7c-1-4.3,0.8-11.1,4.6-9.1C250.2,159.9,247.5,169,248.3,173z"/>
<g id="XMLID_1_">
	<g id="XMLID_2_">
		<path id="XMLID_3_" class="st5" d="M153.6,292.2c0,0-5.4,10-2.7,15.2c2.8,5.2,7,3.9,10.3-0.3c3.2-4.2-3-11.3,0.2-15.8
			C164.6,286.7,159.1,283.1,153.6,292.2z"/>
		<path id="XMLID_217_" class="st6" d="M285.8,214.5c0,0,5.5-12,14.1-9.3s-4.5,16.2-9,16.1"/>
		<path id="XMLID_215_" class="st6" d="M130.1,168.9c0,0-1.4-8.8-3.4-14.6c-2.5-6.9,3.2-11.6,9.6-7.4c6.4,4.2,9.8,18,8.7,21.6"/>
		<path id="XMLID_214_" class="st6" d="M99.7,223.3c0,0-15.9,2.3-13.6,11.1s19,2.7,19,2.7"/>
		<path id="XMLID_213_" class="st5" d="M307,254.8c0,0,15.1,13.8,10.6,20.3c-4.5,6.6-14.5-3.1-17.3-9.3"/>
		<path id="XMLID_212_" class="st5" d="M255,302.1c0,0,8,16.9,0.5,22.5c-7.5,5.6-7.8-4.3-6.8-10c0.9-5.8-3.6-11.6-3.6-11.6"/>
		<path id="XMLID_211_" class="st6" d="M233.5,186.8c-23.4-6.2-25.3-19.6-52.3-29s-64.8-3.5-82.8,51.2
			c-16.8,50.8,90.9,104,121.9,106.8c31,2.8,83.2-11.7,86.6-58.6C309.6,217.9,268.8,196.2,233.5,186.8z"/>
		<path id="XMLID_210_" class="st7" d="M129.9,236c11,10.3,28.9,9.6,40-1.6c11.1-11.2,11.2-28.6,0.2-38.9s-28.9-9.6-40,1.6
			C119,208.3,118.9,225.7,129.9,236z"/>
		<path id="XMLID_209_" class="st8" d="M151,236.2c1.8,2.1,5.6,2.3,8.5,0.6c2.9-1.8,3.8-4.9,2-7c-1.8-2.1-5.6-2.3-8.5-0.6
			C150.1,231,149.2,234.1,151,236.2z"/>
		<path id="XMLID_208_" class="st7" d="M161.3,265.2c0,0,10,5.4,11.4,4.4c1.6-1.2,2.1-2.9,2.7-6.1c0,0-1.5-5.4-10.2-7.9
			S157.6,263.4,161.3,265.2z"/>
		<path id="XMLID_207_" class="st7" d="M163.5,258.8c0,0,11.9,6.6,13.3,3.9c1.3-2.7,3.3-7.4,0.3-8.3c-3-0.9-7.6-2.7-7.6-2.7"/>
		<path id="XMLID_216_" class="st9" d="M116.5,277.2c10.3,6.1,22.4,3.7,27-5.4c4.5-9.1-0.1-21.4-10.5-27.5
			c-10.3-6.1-22.4-3.7-27,5.4C101.5,258.7,106.2,271,116.5,277.2z"/>
		<path id="XMLID_204_" class="st10" d="M136.8,272.8c1.6-2,1.1-4.4-1.1-5.4c-2.2-1-5.3-0.2-6.9,1.7c-1.6,2-1.1,4.4,1.1,5.4
			C132.2,275.5,135.3,274.7,136.8,272.8z"/>
		<path id="XMLID_206_" class="st5" d="M148.8,252c0,0-7.1,13.6,0.7,17.2s14.4-2.1,14-9.7c0,0,8.8-4.3,9.3-9.5
			c0.5-5.2-6.1-11.1-17-6.1"/>
		<path id="XMLID_205_" class="st11" d="M144.7,258.5c3.2,2.3,8.1,0.9,11-3c2.9-3.9,2.7-9-0.4-11.2c-3.2-2.3-8.1-0.9-11,3
			C141.3,251.2,141.5,256.2,144.7,258.5z"/>
	</g>
</g>
<path id="XMLID_6_" class="st12" d="M182.4,414.2c0,0-21.1-32.1-33.9-79.4l104.2-16.3c0,0,4.3,58.5,1.6,83.1c0,0-9.4,7.8-36.1,13.5
	C193.9,420.2,182.4,414.2,182.4,414.2z"/>
<ellipse id="XMLID_4_" transform="matrix(0.988 -0.1546 0.1546 0.988 -48.0961 34.9369)" class="st13" cx="200.5" cy="326.6" rx="52.8" ry="7.5"/>
<path id="XMLID_5_" class="st14" d="M245.1,331.5c0,0,3.9-1.2,3.5-2.7c-0.3-1.5-1.5-63.7-53.3-58.9c-38,3.5-42,40.8-41.4,60.4"/>
<path id="XMLID_37_" class="st15" d="M258.1,181.1c0.9,3.6,6.2,16.4,7.3,23.7c1.2,7.3-3.2,13.8-3.2,13.8s-4.1,0-4-2.3
	c0.1-2.3,3.9-6.6,2.4-12.2c-1.7-6.1-5.6-16.3-8.5-26.7c-1-3.8-0.2-10.7,2.6-9.8C257.6,168.5,257.2,177.5,258.1,181.1z"/>
<path id="XMLID_27_" class="st16" d="M403.8,154c-19.9-2.2-41.3-4.6-41.3-4.6l24.1-1.9c-6.3-2-13.2-4-20.7-5.9
	c-28.3-7.1-52.2-9.4-53.3-5.1c-0.5,2,4,5.1,11.8,8.5c18.9,2.1,38.1,4.2,38.1,4.2l-22.3,1.7c6.5,2.2,13.9,4.3,21.8,6.3
	c28.3,7.1,52.2,9.4,53.3,5.1C415.8,160.3,411.4,157.3,403.8,154z"/>
<path id="XMLID_26_" class="st16" d="M189.9,83.6c-19.9-1.7-41.4-3.5-41.4-3.5l24-2.5c-6.3-1.9-13.3-3.7-20.8-5.3
	c-28.5-6.4-52.4-8-53.4-3.7c-0.4,2,4.1,5,12,8.2c19,1.6,38.2,3.2,38.2,3.2l-22.2,2.3c6.6,2,14,3.9,21.9,5.7
	c28.5,6.4,52.4,8,53.4,3.7C202.1,89.7,197.6,86.8,189.9,83.6z"/>
<g id="XMLID_29_">
	<path id="XMLID_30_" class="st17" d="M148.9,84.3c-21.9-5.1-39.1-11.4-38.5-14.1"/>
	<path id="XMLID_28_" class="st17" d="M151.1,74.6c21.9,5.1,39.1,11.4,38.5,14.1"/>
</g>
<g id="XMLID_34_">
	<path id="XMLID_36_" class="st17" d="M361.4,153.1c-21.9-5.1-39.1-11.4-38.5-14.1"/>
	<path id="XMLID_35_" class="st17" d="M363.6,143.4c21.9,5.1,39.1,11.4,38.5,14.1"/>
</g>
<path id="XMLID_24_" class="st18" d="M141.5,87.7c0,0,1.5-10.5,3.8-10.7c2.3-0.2,6.7,0.9,7.4,1.8C154.2,81,148,95,148,95L141.5,87.7
	z"/>
<path id="XMLID_25_" class="st18" d="M355.3,156.8c0,0,1.8-10.5,4.1-10.6c2.3-0.1,6.7,1,7.4,2c1.4,2.1-5.2,16-5.2,16L355.3,156.8z"
	/>
<path id="XMLID_10_" class="st19" d="M133.2,95.6c0,0,2.8-9.5,4.7-10.8c1.8-1.3,14.2,2.2,15.3,3.2s-2,15.2-3.1,15.7
	S132,99.2,133.2,95.6z"/>
<path id="XMLID_11_" class="st19" d="M365.7,173c0,0,2.4-9.7,1.4-11.8c-0.9-2.1-13.8-5.8-15.3-5.5c-1.6,0.2-6.1,14-5.3,15.1
	C347.4,171.9,364.9,176.7,365.7,173z"/>
<path id="XMLID_9_" class="st20" d="M223.7,255.6c0,0,8.7,9,6.7,16.9c-2,7.9-7.3,8.9-12.1,5.6c-4.8-3.3,0.9-15.4-3.9-19.1
	C209.6,255.3,215.1,247.8,223.7,255.6z"/>
<path id="XMLID_8_" class="st21" d="M252.8,118.8c50.2,16,66.6,34.4,84.3,40.2c17.7,5.8,32,9.4,32.5,12.6c0.5,3.2-0.3,9.5-3.4,10.5
	c-3.1,0.9-33.4-12.1-42.3-11.6c-9,0.6-17.5,2.7-27,1.2c-9.5-1.5-24.3-7.2-24.3-7.2s-10.8,14.3-16.1,14.5c-5.3,0.2-41-9.1-44.8-13.7
	c-3.8-4.6-7.5-22.1-7.5-22.1s-13.5-3.1-22.2-11.5s-14-13.9-25.6-17.3c-11.5-3.4-28.8-8.4-29-11.1c-0.2-2.7,2-11.1,4.5-10.6
	c2.5,0.5,26.9,7.5,36.5,10.7C181.2,107.4,202.9,102.8,252.8,118.8z"/>
<path id="XMLID_13_" class="st22" d="M206.4,143.7c0,0,3.1,16.3,6.2,19.7c2.6,2.9,8.7,4.1,8.7,4.1s-2.5-16.1-2-20.6L206.4,143.7z"/>
<path id="XMLID_14_" class="st22" d="M169.8,118c0,0,8.1,5.8,14.8,13c6.7,7.2,34.8,13.8,34.8,13.8V142c0,0-23.1-4.7-33.1-12.5
	S174.3,119.6,169.8,118z"/>
<g id="XMLID_23_">
	<path id="XMLID_15_" class="st23" d="M231.6,155.8l9.8,2.3c0,0,2.7-5.2,7.6-3.7c4.9,1.5,5,6.5,5,6.5l9.8,2.3c0,0,1.5-7.8-4.4-13.7
		c-5.9-5.9-14.2-6-20.2-3C233.1,149.5,231.6,155.8,231.6,155.8z"/>
	<path id="XMLID_16_" class="st23" d="M234.7,159.2l6.1,1.5c0,0,0.5,5.3,5,6.3c4.6,1.1,7.8-3.5,7.8-3.5l6,1.3c0,0-1.7,5.4-8.2,7.4
		c-6.5,2-10.9-0.8-13.6-4.6C235.2,163.8,234.7,159.2,234.7,159.2z"/>
	<circle id="XMLID_12_" class="st23" cx="247.4" cy="160.7" r="4.2"/>
</g>
<path id="XMLID_32_" class="st15" d="M211.6,167.8c-2.6,2.8-13.7,11.5-18.4,17.5c-4.6,6-2.9,14.2-2.9,14.2s2.9,1.2,3.9-0.9
	c1-2.1-1-7.7,3.2-12c4.6-4.7,16-11.6,23.9-19.6c2.9-2.9,2.4-8.5-1-9C216.8,157.5,214.2,165,211.6,167.8z"/>
<path id="XMLID_38_" class="st4" d="M196.1,199.1c0.4,2.7,0.7,4.9-2,5.4s-4.6-1.5-5-4.2c-0.4-2.7,0.7-5.1,3.4-5.6
	C195.3,194.2,195.7,196.4,196.1,199.1z"/>
<path id="XMLID_39_" class="st4" d="M255.4,217.9c-1.4,2.4-2.4,4.4,0.4,5.9c2.8,1.6,5.4,0.5,6.7-1.9c1.4-2.4,1-5.2-1.8-6.8
	C257.9,213.6,256.7,215.5,255.4,217.9z"/>
<path id="XMLID_41_" class="st24" d="M212.6,108.8c0,0,10.7,1.5,16.6,8c8.5,9.2,45.5,17.1,49.2,17.7s-2.5-7.4-8.9-9.8"/>
<path id="XMLID_42_" class="st25" d="M201.7,107.2c0,0,43.8,13.8,18.5,40c0,0-11.3-2.6-16-4"/>
<path id="XMLID_40_" class="st25" d="M279.5,128.7c0,0,10.8,8.3,10.1,18.3s-17.1,17.3-17.1,17.3"/>
<path id="XMLID_43_" class="st26" d="M181,348.3c0,0,2.7,17.7,4.3,19.5c0,0,16.3-0.8,19.7-2.5c0,0-3.9-16.7-3.8-18.7
	C201.3,344.6,185.3,348.6,181,348.3z"/>
<path id="XMLID_45_" class="st26" d="M205,399.4c0,0,4.2-7,6.3-25.6c0,0,12,13.9,14.4,22.4C225.7,396.3,215.7,400.5,205,399.4z"/>
<ellipse id="XMLID_44_" transform="matrix(0.9292 -0.3695 0.3695 0.9292 -130.1443 95.9958)" class="st26" cx="185.5" cy="387.7" rx="9.8" ry="12.2"/>
</svg>
